<svg width="814" height="246" viewBox="0 0 814 246" fill="none" xmlns="http://www.w3.org/2000/svg">
<path d="M662.11 49.3C666.3 40.65 670.51 32.07 674.63 23.44C677.49 17.45 680.23 11.4 683.01 5.36998C684.07 3.06998 685.04 1.15 688.33 1.17C691.57 1.19 692.59 2.97998 693.68 5.33998C704.39 28.38 715.14 51.41 725.87 74.44C730.15 83.62 734.52 92.77 738.62 102.03C739.89 104.9 741.53 105.78 744.65 105.76C766.31 105.61 787.98 105.77 809.64 105.61C813.19 105.58 814.07 106.61 813.97 110.04C813.72 118.36 813.72 126.71 813.97 135.03C814.08 138.61 813.33 139.83 809.39 139.77C792.73 139.49 776.06 139.62 759.4 139.61C758.6 139.61 757.8 139.72 756.24 139.83C772.68 175.21 788.94 210.19 805.44 245.72C796.5 245.72 788.36 245.62 780.23 245.78C777.47 245.83 777.03 243.88 776.19 242.15C770.13 229.59 764.01 217.06 758.07 204.45C749.09 185.38 739.93 166.39 731.52 147.07C728.93 141.12 726 139.09 719.55 139.49C708.93 140.16 698.22 139.97 687.57 139.53C682.97 139.34 682.16 141.13 681.68 145.06C678.46 171.61 668.08 194.94 649.21 214.07C632.08 231.44 610.86 240.32 586.75 242.91C554.5 246.38 522.15 244.19 489.85 244.77C485.91 244.84 480.79 246.51 478.31 244.03C475.82 241.55 477.57 236.44 477.56 232.49C477.49 203.16 477.43 173.83 477.61 144.5C477.63 140.51 476.54 139.48 472.65 139.59C462.32 139.87 451.99 139.7 441.66 139.69C439.65 139.69 438.21 139.68 437.05 142.18C428.54 160.57 419.7 178.8 411.05 197.12C404.18 211.67 397.35 226.24 390.67 240.87C389.32 243.82 387.76 245.07 384.33 244.91C377.18 244.57 370 244.71 362.84 244.86C360.35 244.91 358.98 244.17 357.88 241.83C342.52 209.06 327.01 176.36 311.75 143.54C310.43 140.7 309.27 139.59 306.1 139.61C281.6 139.74 257.1 139.69 232.61 139.66C230.51 139.66 229.17 139.82 228.05 142.25C219.61 160.49 210.85 178.59 202.27 196.76C195.33 211.45 188.39 226.15 181.68 240.94C180.29 244.01 178.57 245.01 175.27 244.9C167.61 244.64 159.93 244.59 152.28 244.88C148.41 245.03 147.66 243.68 147.68 240.05C147.84 208.39 147.7 176.72 147.88 145.06C147.9 140.91 147.21 139.52 142.59 139.55C105.26 139.79 67.9299 139.77 30.5999 139.57C26.2899 139.55 25.5199 140.85 25.5399 144.81C25.7099 176.47 25.5799 208.14 25.7199 239.8C25.7399 243.51 25.1099 245.16 20.9099 244.86C15.2699 244.45 9.57991 244.56 3.91991 244.83C0.719907 244.99 -0.260083 243.84 0.0699165 240.87C0.229917 239.39 0.0999153 237.87 0.0999153 236.37C0.0999153 159.54 0.139904 82.72 0.00990371 5.89C-9.62876e-05 1.68 0.699915 -0.100029 5.34992 0.299971C10.6399 0.749971 16.0199 0.589981 21.3299 0.309981C24.8299 0.129981 25.7399 1.27999 25.7199 4.75999C25.5799 36.59 25.7099 68.42 25.5399 100.25C25.5199 104.35 26.0899 105.88 30.8099 105.85C68.1399 105.61 105.47 105.64 142.8 105.83C147.11 105.85 147.88 104.57 147.86 100.56C147.69 68.73 147.82 36.9 147.67 5.06999C147.65 1.39999 148.48 0.0499819 152.3 0.279982C157.61 0.609982 162.97 0.629979 168.29 0.339979C172.27 0.119979 173.62 1.09 173.59 5.45C173.37 37.11 173.58 68.78 173.34 100.44C173.31 104.97 174.54 105.95 178.84 105.83C190 105.5 201.17 105.53 212.33 105.81C215.78 105.9 217.29 104.66 218.66 101.75C233.84 69.44 249.15 37.18 264.4 4.89998C265.55 2.46998 266.33 0.429978 269.93 0.369978C273.69 0.299978 274.31 2.64999 275.4 4.97999C290.45 37.18 305.54 69.37 320.42 101.64C321.93 104.91 323.69 105.82 327.13 105.81C357.79 105.68 388.46 105.56 419.12 105.89C424.37 105.95 426.62 104.11 428.69 99.68C443.48 67.91 458.53 36.27 473.47 4.56999C474.55 2.28999 475.3 0.429994 478.7 0.479994C508.52 0.969994 538.36 -0.380024 568.15 1.92998C589.38 3.56998 610.2 7.05998 628.54 18.72C639.92 25.96 650.2 34.7 658.49 45.54C659.47 46.77 660.07 48.43 662.11 49.3ZM407.71 115.27C278.06 115.27 148.42 115.27 18.7699 115.27C9.64991 115.27 9.64991 115.27 9.63991 124.33C9.63991 130.78 9.63991 130.78 16.3499 130.78C275.81 130.78 535.27 130.78 794.73 130.78C804.81 130.78 804.61 130.77 804.92 120.72C805.05 116.58 804.38 115.13 799.65 115.13C669 115.3 538.36 115.27 407.71 115.27ZM579.14 139.67C579.14 139.68 579.14 139.68 579.14 139.69C554.83 139.69 530.52 139.76 506.22 139.61C502.77 139.59 501.73 140.44 501.75 143.99C501.91 168.13 501.91 192.27 501.79 216.41C501.77 219.5 502.64 220.37 505.7 220.34C530.66 220.11 555.65 220.89 580.51 217.88C597.09 215.87 612.26 210.87 625.48 199.82C643.17 185.04 652.44 166.21 655.99 143.9C656.62 139.94 655.47 139.59 652.07 139.61C627.76 139.73 603.45 139.67 579.14 139.67ZM578.35 105.7C602.68 105.7 627.01 105.73 651.34 105.63C652.91 105.62 656.07 107.33 655.22 102.88C650.95 80.48 640.48 61.62 622.81 47.21C609.44 36.31 593.46 31.25 576.56 28.85C553.05 25.51 529.39 25.76 505.74 25.63C502.15 25.61 501.79 27.06 501.81 30.02C501.9 53.68 501.98 77.35 501.74 101.01C501.7 105.28 503.23 105.79 506.87 105.77C530.69 105.63 554.52 105.7 578.35 105.7ZM373.73 216.27C377.54 208.08 380.81 200.92 384.18 193.8C392.04 177.18 399.91 160.56 407.87 143.98C409.37 140.84 409.46 139.55 405.19 139.6C387.23 139.81 369.26 139.68 351.3 139.67C347.18 139.67 343.06 139.67 338.1 139.67C350.02 165.29 361.63 190.26 373.73 216.27ZM269.8 54.08C261.4 71.86 253.49 88.59 245.51 105.48C261.98 105.48 277.69 105.48 294 105.48C285.99 88.46 278.18 71.89 269.8 54.08ZM688.34 55.22C684.36 63.37 680.84 70.68 677.2 77.92C676.37 79.57 676.43 81.21 676.93 82.76C679.07 89.41 680.44 96.24 681.5 103.12C681.77 104.88 682.2 105.77 684.19 105.75C693.26 105.67 702.34 105.71 712.12 105.71C704.12 88.7 696.39 72.31 688.34 55.22ZM173.49 195.2C173.8 195.28 174.12 195.35 174.43 195.43C182.79 177.85 191.17 160.27 199.5 142.67C200.58 140.4 199.89 139.48 197.2 139.57C191.71 139.77 186.21 139.63 180.71 139.65C173.52 139.67 173.5 139.68 173.49 146.98C173.48 163.06 173.49 179.13 173.49 195.2ZM477.54 59.06C477.18 58.98 476.82 58.9 476.46 58.82C469.15 74.31 461.85 89.8 454.34 105.7C461.5 105.7 467.84 105.65 474.16 105.73C476.22 105.75 477.61 105.65 477.59 102.9C477.49 88.3 477.54 73.68 477.54 59.06Z" fill="#222220"/>
<path d="M407.71 115.27C538.36 115.27 669 115.3 799.65 115.14C804.38 115.13 805.05 116.59 804.92 120.73C804.62 130.79 804.82 130.79 794.73 130.79C535.27 130.79 275.81 130.79 16.3499 130.79C9.6299 130.79 9.62989 130.79 9.63989 124.34C9.63989 115.28 9.63989 115.28 18.7699 115.28C148.42 115.27 278.06 115.27 407.71 115.27Z" fill="#E9D4D0"/>
</svg>
